<mxfile host="Electron" agent="Mozilla/5.0 (Windows NT 10.0; Win64; x64) AppleWebKit/537.36 (KHTML, like Gecko) draw.io/28.0.6 Chrome/138.0.7204.100 Electron/37.2.3 Safari/537.36" version="28.0.6">
  <diagram name="Seite-1" id="QiYXQbNzrS4FZRHDP8di">
    <mxGraphModel dx="983" dy="586" grid="1" gridSize="10" guides="1" tooltips="1" connect="1" arrows="1" fold="1" page="1" pageScale="1" pageWidth="827" pageHeight="1169" math="0" shadow="0">
      <root>
        <mxCell id="0" />
        <mxCell id="1" parent="0" />
        <mxCell id="7lb5vPvzzsfJ6qz2o3h9-1" value="Nutzer starten Programm über Konsole&lt;div&gt;&lt;br&gt;&lt;/div&gt;&lt;div&gt;&lt;br&gt;&lt;/div&gt;&lt;div&gt;&lt;br&gt;&lt;/div&gt;" style="ellipse;html=1;shape=startState;fillColor=#000000;strokeColor=#ff0000;" vertex="1" parent="1">
          <mxGeometry x="110" y="90" width="30" height="30" as="geometry" />
        </mxCell>
        <mxCell id="7lb5vPvzzsfJ6qz2o3h9-2" value="" style="edgeStyle=orthogonalEdgeStyle;html=1;verticalAlign=bottom;endArrow=open;endSize=8;strokeColor=#ff0000;rounded=0;" edge="1" source="7lb5vPvzzsfJ6qz2o3h9-1" parent="1">
          <mxGeometry relative="1" as="geometry">
            <mxPoint x="115" y="180" as="targetPoint" />
          </mxGeometry>
        </mxCell>
        <mxCell id="7lb5vPvzzsfJ6qz2o3h9-3" value="&lt;font style=&quot;font-size: 15px;&quot;&gt;&lt;b&gt;&lt;u&gt;Export mit Hilfe der Benutzeroberfäche aus Sicht des Nutzers&lt;/u&gt;&lt;/b&gt;&lt;/font&gt;" style="text;html=1;align=center;verticalAlign=middle;resizable=0;points=[];autosize=1;strokeColor=none;fillColor=none;" vertex="1" parent="1">
          <mxGeometry x="10" y="10" width="460" height="30" as="geometry" />
        </mxCell>
        <mxCell id="7lb5vPvzzsfJ6qz2o3h9-4" value="Menüpunkt: Application/Settings" style="rounded=1;whiteSpace=wrap;html=1;arcSize=40;fontColor=#000000;fillColor=#ffffc0;strokeColor=#ff0000;" vertex="1" parent="1">
          <mxGeometry x="70" y="180" width="120" height="40" as="geometry" />
        </mxCell>
        <mxCell id="7lb5vPvzzsfJ6qz2o3h9-5" value="" style="edgeStyle=orthogonalEdgeStyle;html=1;verticalAlign=bottom;endArrow=open;endSize=8;strokeColor=#ff0000;rounded=0;entryX=0.5;entryY=0;entryDx=0;entryDy=0;" edge="1" source="7lb5vPvzzsfJ6qz2o3h9-4" parent="1" target="7lb5vPvzzsfJ6qz2o3h9-6">
          <mxGeometry relative="1" as="geometry">
            <mxPoint x="130" y="280" as="targetPoint" />
          </mxGeometry>
        </mxCell>
        <mxCell id="7lb5vPvzzsfJ6qz2o3h9-6" value="Nutzer füllt alle Daten (ID, Dateiname, von, bis)" style="rounded=1;whiteSpace=wrap;html=1;arcSize=40;fontColor=#000000;fillColor=#ffffc0;strokeColor=#ff0000;" vertex="1" parent="1">
          <mxGeometry x="65" y="290" width="130" height="50" as="geometry" />
        </mxCell>
        <mxCell id="7lb5vPvzzsfJ6qz2o3h9-7" value="" style="edgeStyle=orthogonalEdgeStyle;html=1;verticalAlign=bottom;endArrow=open;endSize=8;strokeColor=#ff0000;rounded=0;entryX=0.5;entryY=0;entryDx=0;entryDy=0;" edge="1" source="7lb5vPvzzsfJ6qz2o3h9-6" parent="1" target="7lb5vPvzzsfJ6qz2o3h9-8">
          <mxGeometry relative="1" as="geometry">
            <mxPoint x="140" y="470" as="targetPoint" />
          </mxGeometry>
        </mxCell>
        <mxCell id="7lb5vPvzzsfJ6qz2o3h9-8" value="System: überprüft alle Daten" style="rounded=1;whiteSpace=wrap;html=1;arcSize=40;fontColor=#000000;fillColor=#ffffc0;strokeColor=#ff0000;" vertex="1" parent="1">
          <mxGeometry x="70" y="390" width="120" height="40" as="geometry" />
        </mxCell>
        <mxCell id="7lb5vPvzzsfJ6qz2o3h9-9" value="" style="edgeStyle=orthogonalEdgeStyle;html=1;verticalAlign=bottom;endArrow=open;endSize=8;strokeColor=#ff0000;rounded=0;entryX=0;entryY=0.5;entryDx=0;entryDy=0;" edge="1" source="7lb5vPvzzsfJ6qz2o3h9-8" parent="1" target="7lb5vPvzzsfJ6qz2o3h9-10">
          <mxGeometry relative="1" as="geometry">
            <mxPoint x="140" y="620" as="targetPoint" />
          </mxGeometry>
        </mxCell>
        <mxCell id="7lb5vPvzzsfJ6qz2o3h9-10" value="Nutzer sieht Events in Tabelle" style="rounded=1;whiteSpace=wrap;html=1;arcSize=40;fontColor=#000000;fillColor=#ffffc0;strokeColor=#ff0000;" vertex="1" parent="1">
          <mxGeometry x="250" y="390" width="130" height="40" as="geometry" />
        </mxCell>
        <mxCell id="7lb5vPvzzsfJ6qz2o3h9-11" value="" style="edgeStyle=orthogonalEdgeStyle;html=1;verticalAlign=bottom;endArrow=open;endSize=8;strokeColor=#ff0000;rounded=0;entryX=0;entryY=0.5;entryDx=0;entryDy=0;" edge="1" source="7lb5vPvzzsfJ6qz2o3h9-10" parent="1" target="7lb5vPvzzsfJ6qz2o3h9-12">
          <mxGeometry relative="1" as="geometry">
            <mxPoint x="310" y="640" as="targetPoint" />
          </mxGeometry>
        </mxCell>
        <mxCell id="7lb5vPvzzsfJ6qz2o3h9-12" value="Menüpunkt: File/Export" style="rounded=1;whiteSpace=wrap;html=1;arcSize=40;fontColor=#000000;fillColor=#ffffc0;strokeColor=#ff0000;" vertex="1" parent="1">
          <mxGeometry x="440" y="390" width="120" height="40" as="geometry" />
        </mxCell>
        <mxCell id="7lb5vPvzzsfJ6qz2o3h9-13" value="" style="edgeStyle=orthogonalEdgeStyle;html=1;verticalAlign=bottom;endArrow=open;endSize=8;strokeColor=#ff0000;rounded=0;entryX=0.5;entryY=0;entryDx=0;entryDy=0;" edge="1" source="7lb5vPvzzsfJ6qz2o3h9-12" parent="1" target="7lb5vPvzzsfJ6qz2o3h9-14">
          <mxGeometry relative="1" as="geometry">
            <mxPoint x="540" y="570" as="targetPoint" />
          </mxGeometry>
        </mxCell>
        <mxCell id="7lb5vPvzzsfJ6qz2o3h9-14" value="System: Exportiert Datei in Downloads-Verzeichnis von User" style="rounded=1;whiteSpace=wrap;html=1;arcSize=40;fontColor=#000000;fillColor=#ffffc0;strokeColor=#ff0000;" vertex="1" parent="1">
          <mxGeometry x="435" y="470" width="130" height="50" as="geometry" />
        </mxCell>
        <mxCell id="7lb5vPvzzsfJ6qz2o3h9-15" value="" style="edgeStyle=orthogonalEdgeStyle;html=1;verticalAlign=bottom;endArrow=open;endSize=8;strokeColor=#ff0000;rounded=0;entryX=0.5;entryY=0;entryDx=0;entryDy=0;" edge="1" source="7lb5vPvzzsfJ6qz2o3h9-14" parent="1" target="7lb5vPvzzsfJ6qz2o3h9-18">
          <mxGeometry relative="1" as="geometry">
            <mxPoint x="560" y="690" as="targetPoint" />
          </mxGeometry>
        </mxCell>
        <mxCell id="7lb5vPvzzsfJ6qz2o3h9-18" value="&lt;div&gt;&lt;br&gt;&lt;/div&gt;&lt;div&gt;&lt;br&gt;&lt;/div&gt;&lt;div&gt;&lt;br&gt;&lt;/div&gt;Export abgeschlossen" style="ellipse;html=1;shape=endState;fillColor=#000000;strokeColor=#ff0000;" vertex="1" parent="1">
          <mxGeometry x="485" y="570" width="30" height="30" as="geometry" />
        </mxCell>
      </root>
    </mxGraphModel>
  </diagram>
</mxfile>
